# xmcd
#
# Track frame offsets:
#	150
#	17994
#	37868
#	54747
#	70258
#	83353
#	98818
#	116954
#	131345
#	143525
#	157544
#	170277
#	186046
#	198326
#	211901
#	223999
#	234542
#	247008
#	258701
#	272466
#	287483
#	298665
#
# Disc length: 4183 seconds
#
# Revision: 1
# Processed by: cddbd v1.5.1PL0 Copyright (c) Steve Scherf et al.
# Submitted via: EasyCDDAExtractor 7.0.5.1
#
DISCID=3b105516
DTITLE=Puro calypso - Puro Calypso
DYEAR=2005
DGENRE=Calypso
TTITLE0=Milk Shake
TTITLE1=Angela
TTITLE2=Thic bum
TTITLE3=Cuidado com essa gata
TTITLE4=Dá um giro
TTITLE5=A muleta
TTITLE6=Página virada
TTITLE7=Explode corações
TTITLE8=Tic ta
TTITLE9=Liga pra mim
TTITLE10=Vai encarar
TTITLE11=Som do Pará
TTITLE12=Deusa do amor
TTITLE13=Minha flor
TTITLE14=Furacão
TTITLE15=Cigana
TTITLE16=Você me enganou
TTITLE17=Não quero mais
TTITLE18=Eu quero te dar
TTITLE19=Louca por você
TTITLE20=Tua deusa
TTITLE21=Agora virou saudade
EXTD=
EXTT0=
EXTT1=
EXTT2=
EXTT3=
EXTT4=
EXTT5=
EXTT6=
EXTT7=
EXTT8=
EXTT9=
EXTT10=
EXTT11=
EXTT12=
EXTT13=
EXTT14=
EXTT15=
EXTT16=
EXTT17=
EXTT18=
EXTT19=
EXTT20=
EXTT21=
PLAYORDER=
